<svg xmlns="http://www.w3.org/2000/svg" width="173.142" height="131.755" viewBox="0 0 173.142 131.755"><defs><style>.a{fill:#d7c8e4;}.b{fill:#e5586f;}.c{fill:#754632;}.d{fill:#0f274e;}.e{fill:#17193f;}.f{fill:none;stroke:#17193f;stroke-miterlimit:10;stroke-width:0.5px;}.g{fill:#f19897;}.h{fill:#492f80;}.i,.p{fill:#fff;}.i,.l{opacity:0.41;}.j{opacity:0.15;mix-blend-mode:multiply;isolation:isolate;}.k,.l{fill:#2d2d2d;}.m{fill:#412578;}.n{fill:#fdb76b;}.o{fill:#8379b3;}.q{fill:#c9a2cc;}.r{opacity:0.28;}.s{opacity:0.12;}.t{fill:#313c8b;}.u{fill:#f8eef7;}</style></defs><g transform="translate(0 -18.729)"><path class="a" d="M391.17,399.66c-20.357-5.489-38.013-19.129-41.629-36.065s9.741-36.025,30.727-39.7c9.923-1.736,20.633-.186,30.114-3.1,17.88-5.5,23.956-24.1,40.474-31.857,15.915-7.475,37.736-2.084,49.593,9.229s15.315,26.921,14.589,41.67c-1.068,21.669-12.581,45.039-37.158,54.2-20.711,7.721-64.5,9.909-86.709,5.62" transform="translate(-348.952 -266.761)"/><g transform="translate(55.938 18.729)"><g transform="translate(19.888 43.755)"><path class="b" d="M507.493,420.8s-30.259,7.039-42.414-5.116l4.35-29.032c1.321-8.345.533-24.4,6.924-30.1a11.019,11.019,0,0,1,2.426-1.652c4.484-2.164,12.46-3.333,20.118-3.363,9.3-.036,18.877,7,21.32,15.975l-10.068,23.551Z" transform="translate(-433.032 -350.242)"/><g transform="translate(42.172 17.269)"><path class="c" d="M505.276,372.35s13.555,26.109,6.824,27.5c-22.141,4.574-34.993,8.325-34.993,8.325l-1.128,8.6c.33,1.3,44.8.175,50.062-5.8,3.718-4.217,8.662-13.966-1.855-35.065l-3.195-7.177Z" transform="translate(-475.979 -368.733)"/></g><path class="c" d="M476.594,357.58l-33.762,13.071-1.057-17.713-7.228-2.8s-10.481,28.429,2.627,33.722,27.877-4.487,27.877-4.487Z" transform="translate(-430.58 -350.143)"/><path class="b" d="M481.9,353.476c-11.784,3.754-18.812,8.154-35.4,15.074l8.518,19,14.683-4.713Z" transform="translate(-431.712 -350.38)"/><path class="b" d="M505.29,368.271l8.563,19.9,19.314-3.526-13.012-22.409-15.405,6.038" transform="translate(-435.852 -351.002)"/><g transform="translate(59.102 30.003)"><path class="d" d="M494.435,383.272c4.114-.229,8.175-.051,12.287,0,.359.006.337-.5,0-.543a60.552,60.552,0,0,0-12.287.058c-.3.026-.312.5,0,.482Z" transform="translate(-494.204 -382.442)"/></g><g transform="translate(70.435 7.755)"><path class="d" d="M513.727,358.492c-13.9,1.255-4.392,21.745-.83,27.949a.31.31,0,0,0,.535-.312c-3.54-6.267-13.013-25.336.342-27.3.191-.028.148-.357-.047-.339Z" transform="translate(-506.404 -358.491)"/></g><g transform="translate(35.957 19.341)"><path class="d" d="M472.573,371.093a115.243,115.243,0,0,0-3.284,20.947c-.018.29.474.364.516.07.994-6.986,1.994-13.953,3.115-20.921.036-.223-.289-.325-.346-.1Z" transform="translate(-469.288 -370.963)"/></g></g><g transform="translate(62.503)"><path class="e" d="M505.609,328.415l.638-8.8a4.436,4.436,0,0,0,2.585-5.812,5.618,5.618,0,0,0-5.907-3.117c1.5-1.019,1.382-3.453.153-4.783a7,7,0,0,0-4.963-1.832,37.522,37.522,0,0,1-5.422-.181c-1.577-.293-3.123-1.014-4.715-.814s-3.113,1.992-2.255,3.347c-2.3-.337-4.78-.644-6.819.463s-3.065,4.257-1.312,5.779a2.5,2.5,0,0,0-.8,3.392,4.076,4.076,0,0,0,3.281,1.809,12.052,12.052,0,0,0,3.84-.56" transform="translate(-476.456 -303.04)"/><path class="c" d="M505.616,323.391l-.464,6.1s5.187.7,3.708,5.43-5.026,2.66-5.026,2.66-.887,12.122-13.3,8.278c-9.882-3.058-9.277-15.855-8.022-26.764a7.3,7.3,0,0,1,8.659-6.318l7.465,1.454A8.666,8.666,0,0,1,505.616,323.391Z" transform="translate(-476.837 -303.722)"/><path class="c" d="M505.6,336.23l-3.345,17.84a7.156,7.156,0,0,1-8.695,5.642h0a7.156,7.156,0,0,1-5.385-8.212l1.816-10.226Z" transform="translate(-477.281 -305.399)"/><path class="f" d="M491.256,324.753q-.274,4.386-.55,8.774a4.089,4.089,0,0,0,.182,1.91c.254.548.916.735,1.161.178" transform="translate(-477.467 -304.583)"/><path class="f" d="M499.639,347.309a10.077,10.077,0,0,1-11.822-.249" transform="translate(-477.263 -306.168)"/><path class="f" d="M495.479,337.393a2.875,2.875,0,0,1-5.05,1.624" transform="translate(-477.449 -305.481)"/><path class="f" d="M508.4,333.921l-.75,1.693a.576.576,0,0,1,.931.044.835.835,0,0,1-.188,1.012,1.552,1.552,0,0,1-1.032.355" transform="translate(-478.652 -305.235)"/><path class="f" d="M499.561,324.97a2.731,2.731,0,0,0-2.494-.655" transform="translate(-477.921 -304.546)"/><path class="f" d="M488.348,322.721a3.387,3.387,0,0,0-2.838-.248" transform="translate(-477.099 -304.406)"/><path class="e" d="M505.14,329.24c-3.465-3.379-4.484-9.009-5.424-13.756a12.135,12.135,0,0,1-11.325,1.474,18.238,18.238,0,0,1-4.034,3.525,1.806,1.806,0,0,1-1.426.395c-.582-.176-.841-.843-.979-1.434a10.2,10.2,0,0,1,.2-5.749,6.923,6.923,0,0,1,3.859-4.137,10.105,10.105,0,0,1,6.132.1,34.077,34.077,0,0,1,8.656,3.576c2.652,1.554,5.2,3.609,6.324,6.47s1.12,8.419-1.592,9.864" transform="translate(-476.824 -303.472)"/><path class="f" d="M498.209,327.652q-.067.936-.134,1.872" transform="translate(-477.992 -304.789)"/><path class="f" d="M487.476,326.282l-.134,1.872" transform="translate(-477.23 -304.692)"/></g><path class="c" d="M434.456,349.507s1.5-9.209,3.292-9.109,5.375,0,5.375,0,.3-8.759,1.294-7.365,1.309,13.178-2.531,18.832Z" transform="translate(-410.967 -305.161)"/><path class="g" d="M475.987,411.193s-16.065,2.812-15.751,4.9a15.085,15.085,0,0,0,1.443,4.186l14.308-.336Z" transform="translate(-412.799 -310.727)"/><g transform="translate(0 76.123)"><path class="h" d="M489.8,418.918l-.122-2.224-33.089-2.024-11.1-29.683-36.317,2,12.39,32.1Z" transform="translate(-409.17 -384.987)"/><path class="i" d="M430.726,402.135a2.692,2.692,0,1,0,2.541-2.837A2.693,2.693,0,0,0,430.726,402.135Z" transform="translate(-410.702 -386.004)"/><path class="i" d="M429.567,402.111a3.77,3.77,0,1,0,3.557-3.971A3.77,3.77,0,0,0,429.567,402.111Z" transform="translate(-410.619 -385.921)"/></g></g><g transform="translate(4.955 24.023)"><g class="j" transform="translate(1.858 7.775)"><path class="k" d="M376.328,326.994a5.755,5.755,0,0,0-8.121,5.477c.062,1.525.671,3.261-.3,4.44-.751.911-2.088,1-3.164,1.483a4.446,4.446,0,0,0-2.131,5.667c.5,1.105,1.5,2.122,1.31,3.321a2.685,2.685,0,0,1-1.421,1.781c-.682.39-1.446.612-2.151.958a7.707,7.707,0,0,0-4.062,7.048,9.877,9.877,0,0,0,3.91,7.34,13.865,13.865,0,0,0,8,2.723,11.752,11.752,0,0,0,8.058-2.422,13.236,13.236,0,0,0,3.506-5.352,26.766,26.766,0,0,0,1.767-12.052c-.361-4.234-1.73-8.339-2.029-12.579a27.821,27.821,0,0,0-.4-4.248,5.4,5.4,0,0,0-2.244-3.5" transform="translate(-356.286 -317.776)"/><path class="k" d="M377.083,327.084a12.67,12.67,0,0,1,8.542-6.771,9.246,9.246,0,0,1,6.712.855,6.11,6.11,0,0,1,3.049,5.794,19.818,19.818,0,0,1-1.442,4.023c-.489,1.343-.648,2.981.258,4.085.813.991,2.208,1.235,3.318,1.876a4.978,4.978,0,0,1-.51,8.877,5.981,5.981,0,0,1,5.134,7.305c-.55,2.346-2.456,4.141-4.505,5.407a19.854,19.854,0,0,1-9.5,2.933c-3.55.161-7.483-.889-9.415-3.874-1.268-1.959-1.461-4.4-1.6-6.733-.428-7.031-.723-14.069-1.017-21.107a12.2,12.2,0,0,1,.173-3.384" transform="translate(-357.693 -317.317)"/><path class="k" d="M390.019,361.589l31.83,11.932-3.039-12.853,8.279-2.1s8.9,25.129,2.721,25.8c-10.826,1.178-27.207-3.109-27.207-3.109Z" transform="translate(-358.684 -320.055)"/><path class="k" d="M387.023,418.252s38.455-41.972,64.415-32.81,36.922,51.915,36.922,51.915l-20.678-.335s-16.33-32.288-24.3-31.037S410.8,437.97,410.8,437.97Z" transform="translate(-358.471 -321.872)"/><path class="k" d="M397.323,391.1l1.6,24.628c-8.289,10.191-37.146-2.987-37.146-2.987l-.337-10.3-.67-24.524c.664-9.766,9.735-14.559,9.735-14.559a31.814,31.814,0,0,1,14.62-2.676c5.38.267,6.708,2.842,8.923,7.75C395.836,372.4,400.693,378.863,397.323,391.1Z" transform="translate(-356.605 -320.203)"/><path class="k" d="M367.6,421.6s-4.413,17.965,9.039,20.8,62.925-3.793,75.811-2.66,49.532,3.27,49.532,3.27l2.683-21.332s-57.028-2.735-63.473-1.132S367.6,421.6,367.6,421.6Z" transform="translate(-357.041 -324.425)"/><path class="k" d="M373.467,387.915s-4.033,23.769,1.654,23.185c18.71-1.924,29.852-2.184,29.852-2.184l3.1,6.439c.072,1.1-35.434,11.261-41.138,7.9-4.028-2.373-10.446-8.763-7.533-27.863l.688-6.4Z" transform="translate(-356.456 -322.141)"/><path class="k" d="M392.77,422.559l-.039-1.593,23.485-3.316,6.234-21.8,26.015-.632-7.02,23.594Z" transform="translate(-358.877 -322.66)"/><path class="k" d="M437.923,406.878A1.926,1.926,0,1,1,435.95,405,1.927,1.927,0,0,1,437.923,406.878Z" transform="translate(-361.815 -323.355)"/><path class="l" d="M438.635,406.8a2.7,2.7,0,1,1-2.763-2.631A2.7,2.7,0,0,1,438.635,406.8Z" transform="translate(-361.756 -323.296)"/><path class="k" d="M363.11,370.807s-4.364,4.19-5.34,20.049l16.891-1.87S377.477,361.979,363.11,370.807Z" transform="translate(-356.392 -320.799)"/><path class="k" d="M445.508,326.818a37.2,37.2,0,0,1,2.646-9.709,89.51,89.51,0,0,1-2.646,9.709Z" transform="translate(-362.626 -317.108)"/><path class="k" d="M372.4,334.482l.383,5.034s-4.281.578-3.061,4.482,4.149,2.2,4.149,2.2.732,10,10.981,6.832c8.157-2.525,7.657-13.087,6.621-22.092a6.027,6.027,0,0,0-7.146-5.215l-6.163,1.2A7.153,7.153,0,0,0,372.4,334.482Z" transform="translate(-357.226 -317.712)"/><path class="k" d="M373.038,345.078,375.8,359.8a5.908,5.908,0,0,0,7.177,4.657h0a5.907,5.907,0,0,0,4.445-6.778l-1.5-8.44Z" transform="translate(-357.477 -319.096)"/><path class="k" d="M385.24,344.571c.034-.026.107.138.306.172s.494-.17.568-.58a5.109,5.109,0,0,0,0-1.535l-.142-1.963a26.56,26.56,0,0,1-.074-5.061,26.681,26.681,0,0,1,.557,5.03c.036.681.071,1.329.1,1.965a4.6,4.6,0,0,1-.115,1.66c-.13.5-.632.8-.946.664S385.224,344.564,385.24,344.571Z" transform="translate(-358.344 -318.423)"/><path class="k" d="M388.074,354.016c.036.044-.378.482-1.221.956a7.847,7.847,0,0,1-7.278.153,3.156,3.156,0,0,1-1.26-.9,11.383,11.383,0,0,1,1.4.591,8.828,8.828,0,0,0,6.985-.148A11.67,11.67,0,0,1,388.074,354.016Z" transform="translate(-357.852 -319.731)"/><path class="k" d="M386.341,347.379c.046.032-.094.352-.546.659a2.387,2.387,0,0,1-3.562-1.144c-.189-.514-.116-.855-.059-.854.074-.007.131.3.369.708a2.337,2.337,0,0,0,3.087.992C386.059,347.548,386.285,347.329,386.341,347.379Z" transform="translate(-358.122 -319.165)"/><path class="k" d="M372.59,345.734c0,.055-.25.161-.68.026a.955.955,0,0,1-.585-.569.836.836,0,0,1-.024-.534.7.7,0,0,1,.424-.456.671.671,0,0,1,.824.249l-.411.214c-.331-.821-.507-1.445-.407-1.49s.445.505.831,1.3l-.411.214a.229.229,0,0,0-.255-.036c-.143.046-.2.216-.149.4a.672.672,0,0,0,.307.4C372.341,345.624,372.6,345.661,372.59,345.734Z" transform="translate(-357.351 -318.961)"/><path class="k" d="M389.623,338.2c-.13.03-.318-.307-.418-.753s-.076-.829.054-.858.318.307.418.751S389.753,338.173,389.623,338.2Z" transform="translate(-358.622 -318.493)"/><path class="k" d="M380.277,339.071c-.129.035-.333-.3-.457-.742s-.12-.835.008-.87.334.3.457.741S380.405,339.035,380.277,339.071Z" transform="translate(-357.953 -318.555)"/><path class="k" d="M381.027,335.228c-.04.132-.509.1-1.036.246s-.924.389-1.024.294.224-.587.9-.763S381.078,335.108,381.027,335.228Z" transform="translate(-357.897 -318.376)"/><path class="k" d="M390.545,333.706c-.054.127-.564.025-1.173.085s-1.094.236-1.17.119c-.08-.1.384-.539,1.128-.6S390.605,333.592,390.545,333.706Z" transform="translate(-358.554 -318.259)"/><path class="k" d="M372.868,339.309c2.86-2.789,3.7-7.435,4.477-11.354a10.017,10.017,0,0,0,9.348,1.218,15.056,15.056,0,0,0,3.33,2.909,1.49,1.49,0,0,0,1.177.326c.479-.145.693-.7.807-1.184a8.408,8.408,0,0,0-.166-4.746,5.714,5.714,0,0,0-3.184-3.415,8.335,8.335,0,0,0-5.062.081,28.112,28.112,0,0,0-7.143,2.951c-2.189,1.283-4.292,2.979-5.221,5.34s-.924,6.948,1.314,8.142" transform="translate(-357.307 -317.506)"/><path class="k" d="M385.425,347.973a1.169,1.169,0,1,1-2.246-.477,1.155,1.155,0,0,1,2.246.477Z" transform="translate(-358.187 -319.213)"/><path class="k" d="M381.421,342.962c.117.655-.869,1.379-2.219,1.439s-2.4-.569-2.341-1.232,1.055-1.129,2.23-1.184S381.3,342.3,381.421,342.962Z" transform="translate(-357.748 -318.876)"/><path class="k" d="M393.127,342.01c.132.652-.733,1.378-1.951,1.439s-2.154-.569-2.088-1.232.943-1.129,1.964-1.184S392.995,341.352,393.127,342.01Z" transform="translate(-358.618 -318.808)"/><path class="k" d="M372.878,354.372a53.253,53.253,0,0,1-.372-7.222,18.3,18.3,0,0,1,.372,7.222Z" transform="translate(-357.434 -319.244)"/><path class="k" d="M391.2,361.7c-2.771-1.1,18.534,6.809,18.534,6.809l-2.161,14.574-8.1-2.659Z" transform="translate(-358.75 -320.27)"/><path class="k" d="M377.271,325.8a4.419,4.419,0,0,0,.593-3.485,2.429,2.429,0,0,0-1.974-1.98,2.168,2.168,0,0,0-1.535.633,3.154,3.154,0,0,0,3,5.349" transform="translate(-357.5 -317.337)"/><path class="k" d="M514.456,426.152s6.93-9.936,6.084-6.175-7.884,20.479-7.884,20.479Z" transform="translate(-367.401 -324.36)"/><path class="k" d="M406.3,410.363s9.156-2.871,8.842-1.927-1.873.98-3.43,2.5c0,0,10.236.111,9.743.955s-7.155,1.054-7.195,1.2,7.287.323,7.122,1.1-6.973.59-6.973.59,6.311.671,6.182,1.512-5.949.234-5.949.234,4.871.557,4.744,1.319c-.077.464-14.261.569-14.29.91-.016.178,1.2-8.4,1.2-8.4" transform="translate(-359.756 -323.586)"/><path class="k" d="M421.3,360.521s-5.56-7.772-4.568-7.769,1.508,1.468,3.433,2.469c0,0-3.073-9.719-2.122-9.516s3.219,6.443,3.367,6.436-1.956-7-1.168-7.081,2.723,6.415,2.723,6.415-1.325-6.18-.489-6.319,2.069,5.555,2.069,5.555-.985-4.781-.225-4.9c.463-.072,4.659,11.789,4.659,11.789-.11,0-7.68,2.918-7.68,2.918" transform="translate(-360.574 -319.095)"/><path class="k" d="M366.121,384.723c.047-.005.241.37.242,1.092a1.464,1.464,0,0,1-.59,1.16,1.051,1.051,0,0,1-.835.193,1.437,1.437,0,0,1-.732-.475c-.354-.416-.614-.688-1-.729a1.1,1.1,0,0,0-.915.274c-.437.416-.4.879-.48.871-.046.034-.251-.486.231-1.105a1.4,1.4,0,0,1,1.214-.483,1.475,1.475,0,0,1,.754.289,4.409,4.409,0,0,1,.551.554c.319.375.651.45.962.243a1.172,1.172,0,0,0,.5-.828C366.106,385.165,366.038,384.728,366.121,384.723Z" transform="translate(-356.673 -321.914)"/><path class="k" d="M371.841,380c-.029-.038.191-.4.807-.776a1.462,1.462,0,0,1,1.3-.1,1.047,1.047,0,0,1,.6.612,1.437,1.437,0,0,1-.024.872,1.623,1.623,0,0,0-.1,1.235,1.1,1.1,0,0,0,.711.639c.582.156.96-.111.993-.044.053.021-.283.467-1.065.378a1.4,1.4,0,0,1-1.043-.786,1.467,1.467,0,0,1-.146-.794,4.431,4.431,0,0,1,.186-.759c.155-.467.045-.79-.293-.948a1.171,1.171,0,0,0-.968,0C372.226,379.782,371.888,380.068,371.841,380Z" transform="translate(-357.392 -321.508)"/><path class="k" d="M371.477,368.422c-.029-.038.191-.4.807-.776a1.464,1.464,0,0,1,1.3-.1,1.047,1.047,0,0,1,.6.612,1.437,1.437,0,0,1-.024.872,1.623,1.623,0,0,0-.1,1.234,1.1,1.1,0,0,0,.711.639c.582.156.961-.112.993-.044.053.022-.283.467-1.064.378a1.406,1.406,0,0,1-1.044-.786,1.469,1.469,0,0,1-.146-.794,4.355,4.355,0,0,1,.187-.759c.154-.467.045-.79-.294-.948a1.169,1.169,0,0,0-.967,0C371.862,368.2,371.524,368.49,371.477,368.422Z" transform="translate(-357.366 -320.686)"/><path class="k" d="M382.873,383.233c-.035.032-.413-.156-.843-.736a1.464,1.464,0,0,1-.213-1.285,1.052,1.052,0,0,1,.557-.65,1.439,1.439,0,0,1,.871-.052,1.624,1.624,0,0,0,1.239-.007,1.1,1.1,0,0,0,.574-.763c.1-.594-.2-.948-.129-.987.017-.054.49.242.469,1.027a1.409,1.409,0,0,1-.692,1.109,1.469,1.469,0,0,1-.778.214,4.36,4.36,0,0,1-.772-.119c-.479-.113-.791.023-.919.374a1.165,1.165,0,0,0,.087.963C382.622,382.868,382.936,383.18,382.873,383.233Z" transform="translate(-358.096 -321.49)"/><path class="k" d="M390.474,395.45c.026.04-.22.383-.862.714a1.464,1.464,0,0,1-1.3,0,1.048,1.048,0,0,1-.552-.655,1.426,1.426,0,0,1,.088-.868,1.625,1.625,0,0,0,.192-1.224,1.1,1.1,0,0,0-.661-.689c-.57-.2-.966.041-.994-.031-.051-.025.318-.444,1.09-.3a1.4,1.4,0,0,1,.983.861,1.469,1.469,0,0,1,.086.8,4.363,4.363,0,0,1-.242.743c-.189.454-.1.784.223.967a1.171,1.171,0,0,0,.964.069C390.073,395.638,390.432,395.378,390.474,395.45Z" transform="translate(-358.425 -322.458)"/><path class="k" d="M399.691,376.353c.026.04-.22.383-.862.714a1.469,1.469,0,0,1-1.3,0,1.051,1.051,0,0,1-.552-.655,1.436,1.436,0,0,1,.088-.868,1.622,1.622,0,0,0,.192-1.223,1.1,1.1,0,0,0-.66-.69c-.57-.2-.967.041-.994-.03-.051-.025.317-.445,1.089-.3a1.406,1.406,0,0,1,.984.861,1.467,1.467,0,0,1,.086.8,4.438,4.438,0,0,1-.241.743c-.19.454-.1.784.222.967a1.17,1.17,0,0,0,.965.068C399.289,376.541,399.648,376.281,399.691,376.353Z" transform="translate(-359.08 -321.1)"/><path class="k" d="M406.148,373.681c.03-.038.436.077.964.569a1.469,1.469,0,0,1,.444,1.224,1.051,1.051,0,0,1-.43.74,1.431,1.431,0,0,1-.846.211,1.629,1.629,0,0,0-1.218.232,1.1,1.1,0,0,0-.425.856c.006.6.365.9.308.946-.007.057-.526-.149-.649-.924a1.4,1.4,0,0,1,.478-1.216,1.458,1.458,0,0,1,.726-.353,4.417,4.417,0,0,1,.781-.024c.491.024.773-.168.835-.536a1.171,1.171,0,0,0-.262-.932C406.461,373.994,406.1,373.745,406.148,373.681Z" transform="translate(-359.698 -321.129)"/><path class="k" d="M380.54,405.324c.026.04-.22.383-.862.714a1.467,1.467,0,0,1-1.3,0,1.052,1.052,0,0,1-.553-.655,1.433,1.433,0,0,1,.088-.868,1.626,1.626,0,0,0,.193-1.224,1.1,1.1,0,0,0-.661-.69c-.569-.2-.966.041-.994-.03-.051-.025.317-.445,1.089-.3a1.406,1.406,0,0,1,.984.861,1.469,1.469,0,0,1,.086.8,4.434,4.434,0,0,1-.241.743c-.189.454-.1.784.222.967a1.173,1.173,0,0,0,.965.068C380.139,405.513,380.5,405.253,380.54,405.324Z" transform="translate(-357.719 -323.16)"/><path class="k" d="M394.422,386.86c-.039.028-.392-.2-.75-.83a1.47,1.47,0,0,1-.06-1.3,1.05,1.05,0,0,1,.632-.579,1.428,1.428,0,0,1,.87.051,1.622,1.622,0,0,0,1.232.14,1.1,1.1,0,0,0,.661-.69c.174-.577-.082-.963-.012-.994.023-.052.458.3.345,1.076a1.409,1.409,0,0,1-.819,1.019,1.475,1.475,0,0,1-.8.121,4.45,4.45,0,0,1-.753-.21c-.463-.17-.788-.071-.957.263a1.168,1.168,0,0,0-.027.967C394.217,386.468,394.492,386.814,394.422,386.86Z" transform="translate(-358.93 -321.767)"/><path class="k" d="M396.871,396.734c-.039.027-.392-.2-.751-.831a1.465,1.465,0,0,1-.06-1.3,1.048,1.048,0,0,1,.631-.579,1.426,1.426,0,0,1,.871.051,1.624,1.624,0,0,0,1.231.14,1.1,1.1,0,0,0,.661-.69c.174-.577-.083-.963-.013-.994.023-.052.458.3.345,1.076a1.407,1.407,0,0,1-.818,1.019,1.475,1.475,0,0,1-.8.12,4.37,4.37,0,0,1-.753-.209c-.462-.17-.788-.071-.956.263a1.172,1.172,0,0,0-.028.967C396.665,396.341,396.94,396.688,396.871,396.734Z" transform="translate(-359.104 -322.469)"/><path class="k" d="M377.193,392.674c-.047-.006-.153-.414,0-1.119a1.468,1.468,0,0,1,.831-1,1.047,1.047,0,0,1,.856,0,1.427,1.427,0,0,1,.61.623c.255.484.449.806.818.931a1.1,1.1,0,0,0,.953-.067c.517-.31.587-.768.659-.744.052-.023.138.529-.468,1.028a1.407,1.407,0,0,1-1.29.2,1.472,1.472,0,0,1-.672-.448,4.351,4.351,0,0,1-.416-.661c-.228-.437-.537-.582-.885-.449a1.173,1.173,0,0,0-.671.7C377.3,392.246,377.275,392.687,377.193,392.674Z" transform="translate(-357.767 -322.322)"/><path class="k" d="M395.023,404.864c-.047-.006-.153-.414,0-1.119a1.468,1.468,0,0,1,.831-1,1.047,1.047,0,0,1,.856,0,1.428,1.428,0,0,1,.61.623c.255.484.449.806.818.931a1.1,1.1,0,0,0,.953-.067c.517-.31.587-.768.66-.744.052-.023.138.529-.468,1.027a1.4,1.4,0,0,1-1.291.2,1.462,1.462,0,0,1-.672-.447,4.372,4.372,0,0,1-.416-.661c-.228-.436-.537-.581-.885-.448a1.173,1.173,0,0,0-.671.7C395.134,404.435,395.1,404.877,395.023,404.864Z" transform="translate(-359.034 -323.188)"/><path class="k" d="M394.507,367.935c-.047-.006-.154-.414,0-1.119a1.468,1.468,0,0,1,.83-1,1.051,1.051,0,0,1,.857-.005,1.437,1.437,0,0,1,.61.623c.255.484.449.806.817.932a1.1,1.1,0,0,0,.953-.067c.517-.31.587-.768.66-.744.052-.023.138.529-.468,1.027a1.4,1.4,0,0,1-1.291.2,1.463,1.463,0,0,1-.672-.447,4.363,4.363,0,0,1-.416-.661c-.229-.436-.537-.581-.885-.448a1.173,1.173,0,0,0-.671.7C394.617,367.506,394.588,367.948,394.507,367.935Z" transform="translate(-358.997 -320.563)"/><path class="k" d="M388.564,409.56c-.024.042-.441-.022-1.027-.444a1.462,1.462,0,0,1-.594-1.158,1.046,1.046,0,0,1,.333-.79,1.432,1.432,0,0,1,.814-.314,1.626,1.626,0,0,0,1.178-.384,1.1,1.1,0,0,0,.315-.9c-.081-.6-.475-.843-.423-.9,0-.058.541.081.76.835a1.4,1.4,0,0,1-.322,1.267,1.466,1.466,0,0,1-.676.441,4.349,4.349,0,0,1-.771.121c-.491.038-.747.264-.762.636a1.171,1.171,0,0,0,.376.892C388.214,409.289,388.608,409.49,388.564,409.56Z" transform="translate(-358.465 -323.331)"/><path class="k" d="M367.291,373.682c.041-.024.371.241.666.9a1.464,1.464,0,0,1-.069,1.3,1.051,1.051,0,0,1-.684.516,1.433,1.433,0,0,1-.862-.137A1.624,1.624,0,0,0,365.13,376a1.1,1.1,0,0,0-.724.621c-.229.558-.012.967-.085.991-.028.049-.426-.342-.238-1.1a1.4,1.4,0,0,1,.914-.934,1.471,1.471,0,0,1,.806-.043,4.433,4.433,0,0,1,.728.282c.443.214.777.147.977-.168a1.171,1.171,0,0,0,.122-.961C367.457,374.092,367.217,373.72,367.291,373.682Z" transform="translate(-356.837 -321.129)"/><path class="k" d="M387.7,370.028c.042-.023.371.241.666.9a1.468,1.468,0,0,1-.068,1.3,1.051,1.051,0,0,1-.685.515,1.434,1.434,0,0,1-.862-.136,1.624,1.624,0,0,0-1.211-.26,1.1,1.1,0,0,0-.725.622c-.229.557-.012.967-.085.99-.028.05-.426-.341-.238-1.1a1.407,1.407,0,0,1,.914-.934,1.464,1.464,0,0,1,.806-.042,4.354,4.354,0,0,1,.728.282c.444.214.778.147.977-.169a1.169,1.169,0,0,0,.122-.96C387.869,370.438,387.629,370.066,387.7,370.028Z" transform="translate(-358.288 -320.87)"/><path class="k" d="M374.783,389.765a5.291,5.291,0,0,1,.032-1.158c.072-.841.161-1.891.267-3.139.244-2.647.621-6.306,1.058-10.334a11.749,11.749,0,0,0,.012-2.894,5.079,5.079,0,0,0-1.006-2.41,6.7,6.7,0,0,0-3.779-2.34,11.156,11.156,0,0,0-3.087-.254,8.351,8.351,0,0,1-1.154.046,3.912,3.912,0,0,1,1.138-.234,9.977,9.977,0,0,1,3.177.107,6.92,6.92,0,0,1,4.057,2.4,5.486,5.486,0,0,1,1.122,2.611,11.9,11.9,0,0,1,0,3.014c-.437,4.039-.868,7.684-1.2,10.324-.166,1.241-.307,2.286-.419,3.122A5.329,5.329,0,0,1,374.783,389.765Z" transform="translate(-357.057 -320.652)"/><path class="k" d="M374.857,390.515a77.65,77.65,0,0,1-8.6,1.155,77.985,77.985,0,0,1-8.655.673,78.042,78.042,0,0,1,8.6-1.154A78.4,78.4,0,0,1,374.857,390.515Z" transform="translate(-356.38 -322.324)"/><path class="k" d="M401.158,387.381c-.08-.019.11-.852.2-2.212a16.758,16.758,0,0,0-2.568-10.116c-.73-1.15-1.295-1.792-1.234-1.848a6.428,6.428,0,0,1,1.517,1.656A14.788,14.788,0,0,1,401.7,385.2,6.423,6.423,0,0,1,401.158,387.381Z" transform="translate(-359.22 -321.095)"/></g><g transform="translate(0 14.639)"><path class="e" d="M374.328,324.994a5.755,5.755,0,0,0-8.121,5.477c.062,1.525.671,3.261-.3,4.44-.751.911-2.088,1-3.164,1.483a4.446,4.446,0,0,0-2.131,5.667c.5,1.105,1.5,2.122,1.31,3.321a2.685,2.685,0,0,1-1.421,1.781c-.682.39-1.446.612-2.151.958a7.706,7.706,0,0,0-4.062,7.048,9.877,9.877,0,0,0,3.91,7.34,13.865,13.865,0,0,0,8,2.723,11.751,11.751,0,0,0,8.058-2.422,13.235,13.235,0,0,0,3.506-5.352,26.768,26.768,0,0,0,1.767-12.052c-.361-4.234-1.73-8.339-2.029-12.58a27.814,27.814,0,0,0-.4-4.248,5.4,5.4,0,0,0-2.244-3.5" transform="translate(-354.286 -324.498)"/></g><g transform="translate(18.38 8.648)"><path class="e" d="M375.083,325.084a12.671,12.671,0,0,1,8.542-6.771,9.247,9.247,0,0,1,6.712.855,6.11,6.11,0,0,1,3.049,5.794,19.829,19.829,0,0,1-1.442,4.023c-.489,1.343-.648,2.981.258,4.085.813.991,2.208,1.234,3.318,1.876a4.978,4.978,0,0,1-.51,8.877,5.981,5.981,0,0,1,5.134,7.305c-.55,2.346-2.456,4.141-4.505,5.407a19.857,19.857,0,0,1-9.5,2.933c-3.55.161-7.483-.889-9.415-3.874-1.268-1.959-1.461-4.4-1.6-6.733-.428-7.031-.723-14.07-1.017-21.107a12.208,12.208,0,0,1,.173-3.384" transform="translate(-374.073 -318.048)"/></g><path class="g" d="M388.019,359.589l31.83,11.932-3.039-12.853,8.279-2.1s8.9,25.129,2.721,25.8c-10.826,1.178-27.207-3.109-27.207-3.109Z" transform="translate(-356.684 -312.138)"/><path class="m" d="M385.023,416.253s38.455-41.972,64.415-32.81,36.922,51.915,36.922,51.915l-20.678-.335s-16.33-32.288-24.3-31.037S408.8,435.97,408.8,435.97Z" transform="translate(-356.471 -313.955)"/><path class="n" d="M395.323,389.1l1.6,24.628c-8.289,10.191-37.146-2.986-37.146-2.986l-.337-10.3-.67-24.524c.664-9.766,9.735-14.559,9.735-14.559a31.811,31.811,0,0,1,14.62-2.676c5.379.266,6.708,2.841,8.923,7.75C393.836,370.4,398.693,376.863,395.323,389.1Z" transform="translate(-354.605 -312.286)"/><path class="h" d="M365.6,419.6s-4.413,17.964,9.039,20.8,62.925-3.793,75.811-2.66,49.532,3.27,49.532,3.27l2.683-21.332s-57.027-2.735-63.473-1.132S365.6,419.6,365.6,419.6Z" transform="translate(-355.041 -316.508)"/><g transform="translate(2.212 71.691)"><path class="g" d="M371.467,385.915s-4.033,23.769,1.654,23.185c18.71-1.924,29.852-2.184,29.852-2.184l3.1,6.439c.072,1.1-35.434,11.261-41.138,7.9-4.028-2.373-10.446-8.763-7.533-27.863l.688-6.4Z" transform="translate(-356.668 -385.915)"/></g><g transform="translate(33.855 78.477)"><path class="o" d="M390.77,420.559l-.039-1.593,23.485-3.316,6.234-21.8,26.015-.632-7.02,23.594Z" transform="translate(-390.731 -393.22)"/><path class="p" d="M435.923,404.878A1.926,1.926,0,1,1,433.95,403,1.927,1.927,0,0,1,435.923,404.878Z" transform="translate(-393.67 -393.915)"/><path class="i" d="M436.635,404.8a2.7,2.7,0,1,1-2.763-2.631A2.7,2.7,0,0,1,436.635,404.8Z" transform="translate(-393.611 -393.856)"/></g><path class="n" d="M361.11,368.807s-4.364,4.19-5.339,20.049l16.891-1.87S375.477,359.979,361.11,368.807Z" transform="translate(-354.392 -312.882)"/><g transform="translate(64.796)"><path class="q" d="M437.385,312.754s5.988,13.446,7.657,12.742,17.135-10.3,17.135-10.3-6.338-12.039-7.657-12.741S437.385,312.754,437.385,312.754Z" transform="translate(-437.385 -302.423)"/><g transform="translate(0 0.032)"><path class="d" d="M454.52,302.458a4.212,4.212,0,0,1-.269.983c-.2.622-.512,1.516-.9,2.618-.782,2.2-1.894,5.234-3.15,8.572l-.091.241-.07.186-.2-.031c-3.465-.565-6.584-1.1-8.835-1.509-1.125-.205-2.033-.379-2.66-.51a3.942,3.942,0,0,1-.962-.251,4.033,4.033,0,0,1,.993.067c.634.074,1.551.2,2.684.359,2.265.323,5.392.8,8.857,1.366l-.265.153.09-.241c1.256-3.338,2.419-6.35,3.283-8.522.432-1.087.79-1.963,1.047-2.564A4.091,4.091,0,0,1,454.52,302.458Z" transform="translate(-437.385 -302.458)"/></g><g transform="translate(5.665 11.783)"><path class="d" d="M443.508,324.818a37.205,37.205,0,0,1,2.646-9.709,89.451,89.451,0,0,1-2.646,9.709Z" transform="translate(-443.484 -315.108)"/></g><g transform="translate(14.224 8.549)"><path class="d" d="M462.245,313.176a48.342,48.342,0,0,1-9.548-1.513,48.341,48.341,0,0,1,9.548,1.513Z" transform="translate(-452.697 -311.626)"/></g></g><path class="g" d="M370.4,332.482l.383,5.034s-4.281.578-3.061,4.482,4.149,2.2,4.149,2.2.732,10,10.981,6.832c8.157-2.525,7.657-13.087,6.621-22.092a6.027,6.027,0,0,0-7.146-5.215l-6.162,1.2A7.153,7.153,0,0,0,370.4,332.482Z" transform="translate(-355.226 -309.795)"/><path class="g" d="M371.038,343.078,373.8,357.8a5.908,5.908,0,0,0,7.177,4.657h0a5.907,5.907,0,0,0,4.445-6.778l-1.5-8.44Z" transform="translate(-355.477 -311.179)"/><g transform="translate(26.887 23.099)"><path class="e" d="M383.24,342.571c.034-.026.107.138.306.172s.494-.17.568-.58a5.109,5.109,0,0,0,0-1.535l-.142-1.963a26.563,26.563,0,0,1-.074-5.061,26.679,26.679,0,0,1,.557,5.03c.036.681.071,1.329.1,1.965a4.6,4.6,0,0,1-.115,1.66c-.13.5-.632.8-.946.664S383.224,342.565,383.24,342.571Z" transform="translate(-383.231 -333.605)"/></g><g transform="translate(20.462 40.195)"><path class="e" d="M386.074,352.016c.036.044-.378.482-1.221.956a7.848,7.848,0,0,1-7.278.153,3.158,3.158,0,0,1-1.26-.9,11.385,11.385,0,0,1,1.4.591,8.829,8.829,0,0,0,6.985-.148A11.707,11.707,0,0,1,386.074,352.016Z" transform="translate(-376.314 -352.009)"/></g><g transform="translate(23.989 32.791)"><path class="e" d="M384.341,345.378c.046.032-.094.352-.546.659a2.387,2.387,0,0,1-3.562-1.145c-.189-.514-.116-.855-.059-.854.074-.007.131.3.369.708a2.336,2.336,0,0,0,3.087.992C384.059,345.547,384.285,345.329,384.341,345.378Z" transform="translate(-380.111 -344.039)"/></g><g transform="translate(13.916 30.127)"><path class="e" d="M370.59,343.734c0,.055-.25.161-.68.026a.956.956,0,0,1-.585-.569.836.836,0,0,1-.024-.534.7.7,0,0,1,.424-.456.671.671,0,0,1,.824.249l-.411.214c-.331-.821-.507-1.445-.407-1.49s.445.505.831,1.3l-.411.214a.23.23,0,0,0-.255-.036c-.143.046-.2.216-.149.4a.672.672,0,0,0,.307.4C370.341,343.624,370.6,343.661,370.59,343.734Z" transform="translate(-369.268 -341.17)"/></g><g transform="translate(30.522 24.014)"><path class="e" d="M387.623,336.2c-.13.03-.318-.308-.418-.752s-.076-.83.054-.858.318.307.418.752S387.753,336.173,387.623,336.2Z" transform="translate(-387.143 -334.59)"/></g><g transform="translate(21.777 24.819)"><path class="e" d="M378.277,337.071c-.129.035-.333-.3-.457-.742s-.12-.835.008-.87.333.3.457.741S378.405,337.035,378.277,337.071Z" transform="translate(-377.729 -335.456)"/></g><g transform="translate(21.052 22.488)"><path class="e" d="M379.027,333.228c-.04.132-.509.1-1.036.246s-.924.389-1.024.294.224-.587.9-.763S379.078,333.108,379.027,333.228Z" transform="translate(-376.949 -332.947)"/></g><g transform="translate(29.639 20.958)"><path class="e" d="M388.545,331.706c-.054.127-.564.025-1.173.085s-1.094.236-1.169.119c-.08-.1.384-.539,1.128-.6S388.605,331.592,388.545,331.706Z" transform="translate(-386.193 -331.301)"/></g><g transform="translate(13.341 11.111)"><path class="e" d="M370.868,337.309c2.86-2.789,3.7-7.435,4.477-11.354a10.017,10.017,0,0,0,9.348,1.218,15.062,15.062,0,0,0,3.33,2.909,1.49,1.49,0,0,0,1.177.326c.479-.145.693-.7.807-1.184a8.407,8.407,0,0,0-.166-4.746,5.713,5.713,0,0,0-3.184-3.415,8.335,8.335,0,0,0-5.062.081,28.117,28.117,0,0,0-7.143,2.951c-2.189,1.283-4.293,2.979-5.22,5.34s-.924,6.948,1.314,8.142" transform="translate(-368.648 -320.7)"/></g><g class="r" transform="translate(24.842 33.421)"><path class="e" d="M383.425,345.973a1.169,1.169,0,1,1-2.246-.478,1.155,1.155,0,0,1,2.246.478Z" transform="translate(-381.029 -344.717)"/></g><g class="s" transform="translate(19.11 29.021)"><path class="e" d="M379.421,340.962c.117.655-.869,1.379-2.219,1.439s-2.4-.569-2.341-1.232,1.055-1.129,2.23-1.184S379.3,340.3,379.421,340.962Z" transform="translate(-374.858 -339.98)"/></g><g class="s" transform="translate(30.467 28.137)"><path class="e" d="M391.127,340.01c.132.652-.733,1.378-1.951,1.439s-2.154-.569-2.088-1.232.943-1.129,1.964-1.184S390.995,339.352,391.127,340.01Z" transform="translate(-387.084 -339.028)"/></g><g transform="translate(15.005 33.823)"><path class="t" d="M370.878,352.372a53.281,53.281,0,0,1-.372-7.222,18.3,18.3,0,0,1,.372,7.222Z" transform="translate(-370.44 -345.15)"/></g><path class="n" d="M389.2,359.7c-2.771-1.1,18.534,6.809,18.534,6.809l-2.161,14.574-8.1-2.659Z" transform="translate(-356.75 -312.353)"/><g transform="translate(15.867 8.909)"><path class="e" d="M375.271,323.8a4.419,4.419,0,0,0,.593-3.485,2.429,2.429,0,0,0-1.974-1.98,2.168,2.168,0,0,0-1.535.633,3.154,3.154,0,0,0,3,5.349" transform="translate(-371.368 -318.329)"/></g><path class="e" d="M512.456,424.152s6.93-9.936,6.084-6.174-7.884,20.479-7.884,20.479Z" transform="translate(-365.401 -316.442)"/><path class="g" d="M404.3,408.363s9.156-2.871,8.842-1.927-1.873.98-3.431,2.5c0,0,10.236.112,9.744.955s-7.154,1.054-7.195,1.2,7.287.323,7.122,1.1-6.973.59-6.973.59,6.311.671,6.182,1.512-5.949.234-5.949.234,4.871.557,4.744,1.319c-.077.464-14.261.569-14.29.91-.016.178,1.2-8.4,1.2-8.4" transform="translate(-357.756 -315.669)"/><path class="g" d="M419.3,358.521s-5.56-7.772-4.568-7.769,1.508,1.468,3.433,2.469c0,0-3.073-9.719-2.122-9.516s3.219,6.443,3.367,6.435-1.956-7-1.168-7.081,2.723,6.415,2.723,6.415-1.325-6.18-.489-6.318,2.069,5.555,2.069,5.555-.985-4.781-.225-4.9c.463-.072,4.659,11.789,4.659,11.789-.11,0-7.68,2.918-7.68,2.918" transform="translate(-358.574 -311.178)"/><g transform="translate(5.054 68.726)"><path class="u" d="M364.121,382.723c.047-.006.241.37.242,1.092a1.464,1.464,0,0,1-.59,1.16,1.051,1.051,0,0,1-.835.193,1.437,1.437,0,0,1-.732-.475c-.354-.416-.614-.688-1-.729a1.1,1.1,0,0,0-.915.274c-.437.416-.4.879-.48.871-.045.034-.251-.486.231-1.105a1.4,1.4,0,0,1,1.214-.483,1.475,1.475,0,0,1,.754.289,4.414,4.414,0,0,1,.551.554c.319.375.651.45.962.243a1.172,1.172,0,0,0,.5-.828C364.106,383.165,364.038,382.728,364.121,382.723Z" transform="translate(-359.727 -382.723)"/></g><g transform="translate(14.447 63.424)"><path class="u" d="M369.841,378c-.029-.038.191-.4.807-.776a1.461,1.461,0,0,1,1.3-.1,1.046,1.046,0,0,1,.6.612,1.437,1.437,0,0,1-.024.872,1.622,1.622,0,0,0-.1,1.235,1.1,1.1,0,0,0,.711.639c.582.156.961-.111.993-.044.053.021-.283.467-1.065.378a1.4,1.4,0,0,1-1.043-.786,1.469,1.469,0,0,1-.146-.794,4.42,4.42,0,0,1,.186-.759c.155-.467.046-.79-.293-.948a1.171,1.171,0,0,0-.968,0C370.226,377.782,369.888,378.067,369.841,378Z" transform="translate(-369.838 -377.015)"/></g><g transform="translate(14.109 52.669)"><path class="u" d="M369.477,366.422c-.029-.038.191-.4.807-.776a1.464,1.464,0,0,1,1.3-.1,1.047,1.047,0,0,1,.6.612,1.436,1.436,0,0,1-.024.872,1.622,1.622,0,0,0-.1,1.234,1.1,1.1,0,0,0,.711.639c.582.156.961-.112.993-.044.053.022-.283.467-1.064.378a1.406,1.406,0,0,1-1.044-.786,1.469,1.469,0,0,1-.146-.794,4.363,4.363,0,0,1,.187-.759c.154-.467.046-.79-.294-.947a1.168,1.168,0,0,0-.967,0C369.862,366.2,369.524,366.49,369.477,366.422Z" transform="translate(-369.474 -365.438)"/></g><g transform="translate(23.653 63.176)"><path class="u" d="M380.873,381.233c-.035.033-.413-.156-.844-.736a1.464,1.464,0,0,1-.213-1.285,1.051,1.051,0,0,1,.557-.65,1.438,1.438,0,0,1,.871-.052,1.623,1.623,0,0,0,1.239-.007,1.1,1.1,0,0,0,.574-.763c.1-.594-.2-.948-.129-.986.017-.054.49.242.469,1.027a1.41,1.41,0,0,1-.692,1.109,1.47,1.47,0,0,1-.779.214,4.362,4.362,0,0,1-.772-.119c-.479-.113-.791.023-.919.374a1.165,1.165,0,0,0,.087.963C380.622,380.868,380.936,381.18,380.873,381.233Z" transform="translate(-379.749 -376.748)"/></g><g transform="translate(27.954 75.831)"><path class="u" d="M388.474,393.45c.026.04-.22.383-.862.714a1.464,1.464,0,0,1-1.3,0,1.048,1.048,0,0,1-.552-.655,1.425,1.425,0,0,1,.088-.867,1.625,1.625,0,0,0,.192-1.224,1.1,1.1,0,0,0-.661-.689c-.569-.2-.966.041-.994-.031-.051-.025.318-.444,1.09-.3a1.4,1.4,0,0,1,.983.861,1.468,1.468,0,0,1,.086.8,4.357,4.357,0,0,1-.241.743c-.189.454-.1.784.223.967a1.172,1.172,0,0,0,.964.069C388.073,393.638,388.432,393.378,388.474,393.45Z" transform="translate(-384.379 -390.372)"/></g><g transform="translate(36.516 58.091)"><path class="u" d="M397.691,374.352c.026.04-.22.383-.862.714a1.469,1.469,0,0,1-1.3,0,1.051,1.051,0,0,1-.552-.655,1.436,1.436,0,0,1,.088-.869,1.622,1.622,0,0,0,.192-1.223,1.1,1.1,0,0,0-.66-.69c-.57-.2-.967.041-.994-.03-.051-.025.317-.445,1.089-.3a1.406,1.406,0,0,1,.984.861,1.467,1.467,0,0,1,.086.8,4.447,4.447,0,0,1-.241.743c-.19.454-.1.784.222.967a1.169,1.169,0,0,0,.965.068C397.289,374.541,397.648,374.281,397.691,374.352Z" transform="translate(-393.596 -371.275)"/></g><g transform="translate(44.587 58.463)"><path class="u" d="M404.148,371.681c.03-.038.436.077.964.569a1.468,1.468,0,0,1,.444,1.224,1.051,1.051,0,0,1-.43.74,1.431,1.431,0,0,1-.846.211,1.629,1.629,0,0,0-1.218.232,1.1,1.1,0,0,0-.424.856c.006.6.365.9.307.946-.006.057-.526-.149-.649-.924a1.4,1.4,0,0,1,.478-1.216,1.459,1.459,0,0,1,.725-.353,4.414,4.414,0,0,1,.781-.024c.491.024.773-.168.835-.536a1.171,1.171,0,0,0-.262-.932C404.461,371.995,404.1,371.745,404.148,371.681Z" transform="translate(-402.285 -371.675)"/></g><g transform="translate(18.726 85.004)"><path class="u" d="M378.54,403.324c.026.04-.22.383-.862.714a1.467,1.467,0,0,1-1.3,0,1.052,1.052,0,0,1-.553-.655,1.432,1.432,0,0,1,.088-.868,1.626,1.626,0,0,0,.193-1.224,1.1,1.1,0,0,0-.661-.69c-.569-.2-.966.041-.994-.03-.051-.025.317-.445,1.089-.3a1.406,1.406,0,0,1,.984.861,1.467,1.467,0,0,1,.086.8,4.44,4.44,0,0,1-.241.743c-.189.454-.1.784.222.967a1.173,1.173,0,0,0,.965.068C378.139,403.513,378.5,403.253,378.54,403.324Z" transform="translate(-374.445 -400.247)"/></g><g transform="translate(34.556 66.802)"><path class="u" d="M392.422,384.86c-.039.028-.392-.2-.751-.83a1.47,1.47,0,0,1-.059-1.3,1.05,1.05,0,0,1,.632-.579,1.429,1.429,0,0,1,.87.051,1.623,1.623,0,0,0,1.232.14,1.1,1.1,0,0,0,.66-.69c.174-.577-.082-.963-.012-.994.023-.052.458.3.345,1.076a1.409,1.409,0,0,1-.819,1.019,1.475,1.475,0,0,1-.8.121,4.458,4.458,0,0,1-.752-.21c-.463-.17-.788-.071-.957.263a1.167,1.167,0,0,0-.027.967C392.217,384.468,392.492,384.815,392.422,384.86Z" transform="translate(-391.487 -380.652)"/></g><g transform="translate(36.831 75.974)"><path class="u" d="M394.871,394.734c-.039.027-.392-.2-.751-.831a1.465,1.465,0,0,1-.059-1.3,1.049,1.049,0,0,1,.631-.579,1.425,1.425,0,0,1,.871.051,1.624,1.624,0,0,0,1.231.14,1.1,1.1,0,0,0,.661-.69c.174-.577-.083-.963-.013-.994.023-.052.458.3.345,1.076a1.406,1.406,0,0,1-.818,1.019,1.473,1.473,0,0,1-.8.12,4.377,4.377,0,0,1-.753-.209c-.462-.17-.788-.071-.956.263a1.171,1.171,0,0,0-.028.967C394.665,394.341,394.94,394.688,394.871,394.734Z" transform="translate(-393.936 -390.526)"/></g><g transform="translate(19.347 74.053)"><path class="u" d="M375.193,390.674c-.047-.006-.153-.414,0-1.119a1.468,1.468,0,0,1,.83-1,1.048,1.048,0,0,1,.856,0,1.427,1.427,0,0,1,.61.623c.254.484.449.806.817.931a1.1,1.1,0,0,0,.953-.067c.517-.31.587-.768.66-.744.052-.023.138.529-.468,1.028a1.407,1.407,0,0,1-1.29.2,1.472,1.472,0,0,1-.673-.448,4.349,4.349,0,0,1-.416-.66c-.229-.437-.537-.582-.885-.449a1.174,1.174,0,0,0-.671.7C375.3,390.246,375.275,390.687,375.193,390.674Z" transform="translate(-375.114 -388.457)"/></g><g transform="translate(35.91 85.376)"><path class="u" d="M393.023,402.864c-.047-.005-.153-.414,0-1.119a1.467,1.467,0,0,1,.83-1,1.047,1.047,0,0,1,.856,0,1.428,1.428,0,0,1,.61.623c.254.484.449.806.817.931a1.1,1.1,0,0,0,.953-.067c.517-.31.587-.768.659-.744.052-.023.138.529-.468,1.027a1.4,1.4,0,0,1-1.291.2,1.462,1.462,0,0,1-.672-.447,4.377,4.377,0,0,1-.416-.661c-.229-.436-.537-.582-.885-.448a1.173,1.173,0,0,0-.671.7C393.134,402.435,393.1,402.877,393.023,402.864Z" transform="translate(-392.944 -400.648)"/></g><g transform="translate(35.43 51.072)"><path class="u" d="M392.507,365.935c-.047-.006-.154-.414,0-1.119a1.468,1.468,0,0,1,.831-1,1.051,1.051,0,0,1,.856-.006,1.437,1.437,0,0,1,.61.623c.255.484.449.806.817.932a1.1,1.1,0,0,0,.953-.067c.517-.31.587-.768.66-.744.052-.023.138.529-.468,1.027a1.4,1.4,0,0,1-1.291.2,1.461,1.461,0,0,1-.672-.447,4.355,4.355,0,0,1-.416-.661c-.229-.436-.537-.582-.885-.448a1.173,1.173,0,0,0-.67.7C392.617,365.506,392.588,365.948,392.507,365.935Z" transform="translate(-392.427 -363.718)"/></g><g transform="translate(28.478 87.243)"><path class="u" d="M386.564,407.56c-.024.042-.441-.022-1.027-.444a1.463,1.463,0,0,1-.594-1.158,1.046,1.046,0,0,1,.333-.79,1.431,1.431,0,0,1,.814-.314,1.626,1.626,0,0,0,1.178-.384,1.1,1.1,0,0,0,.315-.9c-.081-.6-.475-.843-.424-.9,0-.058.541.081.76.835a1.4,1.4,0,0,1-.322,1.267,1.466,1.466,0,0,1-.676.441,4.37,4.37,0,0,1-.771.121c-.491.038-.747.264-.762.636a1.171,1.171,0,0,0,.376.892C386.214,407.289,386.608,407.49,386.564,407.56Z" transform="translate(-384.943 -402.658)"/></g><g transform="translate(7.196 58.468)"><path class="u" d="M365.291,371.682c.041-.024.371.241.666.9a1.463,1.463,0,0,1-.069,1.3,1.051,1.051,0,0,1-.684.516,1.434,1.434,0,0,1-.862-.137A1.623,1.623,0,0,0,363.13,374a1.1,1.1,0,0,0-.725.621c-.229.558-.012.967-.084.991-.028.049-.426-.342-.238-1.1a1.4,1.4,0,0,1,.914-.934,1.471,1.471,0,0,1,.806-.043,4.4,4.4,0,0,1,.728.282c.443.214.778.147.977-.168a1.171,1.171,0,0,0,.122-.961C365.457,372.092,365.217,371.72,365.291,371.682Z" transform="translate(-362.033 -371.68)"/></g><g transform="translate(26.157 55.074)"><path class="u" d="M385.7,368.028c.042-.023.371.242.666.9a1.468,1.468,0,0,1-.068,1.3,1.051,1.051,0,0,1-.685.515,1.434,1.434,0,0,1-.862-.136,1.623,1.623,0,0,0-1.211-.26,1.1,1.1,0,0,0-.725.622c-.229.557-.012.967-.085.99-.028.05-.426-.341-.238-1.1a1.407,1.407,0,0,1,.914-.935,1.463,1.463,0,0,1,.806-.042,4.34,4.34,0,0,1,.728.282c.444.214.777.147.977-.169a1.169,1.169,0,0,0,.122-.96C385.869,368.438,385.629,368.066,385.7,368.028Z" transform="translate(-382.445 -368.026)"/></g><g transform="translate(10.069 52.234)"><path class="e" d="M372.783,387.765a5.3,5.3,0,0,1,.032-1.158c.072-.841.161-1.891.267-3.139.244-2.647.621-6.306,1.058-10.334a11.753,11.753,0,0,0,.012-2.894,5.083,5.083,0,0,0-1.006-2.411,6.7,6.7,0,0,0-3.779-2.34,11.152,11.152,0,0,0-3.087-.254,8.352,8.352,0,0,1-1.154.046,3.91,3.91,0,0,1,1.138-.234,9.977,9.977,0,0,1,3.177.107,6.921,6.921,0,0,1,4.057,2.4,5.486,5.486,0,0,1,1.122,2.611,11.912,11.912,0,0,1,0,3.014c-.437,4.039-.868,7.684-1.2,10.324-.166,1.241-.307,2.286-.419,3.122A5.333,5.333,0,0,1,372.783,387.765Z" transform="translate(-365.126 -364.969)"/></g><g transform="translate(1.22 74.077)"><path class="e" d="M372.858,388.514a77.637,77.637,0,0,1-8.6,1.155,78.021,78.021,0,0,1-8.655.672,78.027,78.027,0,0,1,8.6-1.154A78.445,78.445,0,0,1,372.858,388.514Z" transform="translate(-355.6 -388.484)"/></g><g transform="translate(38.335 58.026)"><path class="e" d="M399.158,385.381c-.08-.02.11-.852.2-2.212a16.76,16.76,0,0,0-2.569-10.116c-.73-1.15-1.295-1.792-1.234-1.848a6.427,6.427,0,0,1,1.517,1.656A14.79,14.79,0,0,1,399.7,383.2,6.428,6.428,0,0,1,399.158,385.381Z" transform="translate(-395.554 -371.204)"/></g></g></g></svg>