<svg xmlns="http://www.w3.org/2000/svg" xmlns:xlink="http://www.w3.org/1999/xlink" width="480" height="212.715" viewBox="0 0 480 212.715"><defs><style>.a,.q{fill:none;}.b{fill:#e85845;}.c{fill:#dee7f7;}.d{clip-path:url(#c);}.e{fill:#d7c8e4;}.f{fill:#f19897;}.g{fill:#121c36;}.h,.n{fill:#fff;}.h{opacity:0.8;}.i,.l{fill:#003075;}.j{fill:#17193f;}.k{fill:#492f80;}.l,.u{opacity:0.3;}.m{fill:#412578;}.o{fill:#5479bb;}.p{fill:#5c261e;}.q{stroke:#121c36;stroke-miterlimit:10;stroke-width:5px;}.r,.s,.u{fill:#2d1512;}.r{opacity:0.15;}.t{fill:#eb7066;opacity:0.5;}.v{filter:url(#d);}.w{filter:url(#a);}</style><filter id="a" x="13.643" y="47.657" width="211.553" height="162.549" filterUnits="userSpaceOnUse"><feOffset dy="3" input="SourceAlpha"/><feGaussianBlur stdDeviation="3" result="b"/><feFlood flood-opacity="0.161"/><feComposite operator="in" in2="b"/><feComposite in="SourceGraphic"/></filter><clipPath id="c"><g class="w" transform="matrix(1, 0, 0, 1, 0, 0)"><path class="a" d="M1290.8,176.419c-6.1,17.644-13.38,35.067-38.708,41.795l-109.475-1.163c-24.669-11.651-38.15-34.657-40.392-59.478a84.615,84.615,0,0,1,1.464-24.861q.674-3.261,1.609-6.481c5.656-19.5,17.626-37.882,35.433-48.251,11.441-6.663,26.107-4.464,38.259-1.043,10.956,3.083,21.658,7.4,32.969,8.7,9.01,1.033,18.176.116,27.216.471a66.218,66.218,0,0,1,9.637,1.014c13.655,2.565,25.759,10.938,34.067,22.133a60.85,60.85,0,0,1,7.144,12.42C1297.337,138.852,1296.9,158.775,1290.8,176.419Z" transform="translate(-1101.89 -73.66)"/></g></clipPath><filter id="d" x="76.365" y="49.476" width="103.19" height="107.835" filterUnits="userSpaceOnUse"><feOffset dy="3" input="SourceAlpha"/><feGaussianBlur stdDeviation="3" result="e"/><feFlood flood-opacity="0.161"/><feComposite operator="in" in2="e"/><feComposite in="SourceGraphic"/></filter></defs><g transform="translate(0 23.055)"><g transform="translate(259.418 124.641)"><path class="b" d="M2510.667,904.8c-.028,0-.055,0-.083,0l.241-4.169h-21.207l1.022,17.685a6.266,6.266,0,0,0,6.256,5.9h6.651a6.266,6.266,0,0,0,6.256-5.9l.236-4.081c.206.02.415.032.628.032,3.1,0,5.615-2.124,5.615-4.735S2513.762,904.8,2510.667,904.8Zm0,7.509a4.82,4.82,0,0,1-.515-.031l.318-5.509c.065,0,.13-.007.2-.007,2.014,0,3.653,1.244,3.653,2.774S2512.681,912.307,2510.667,912.307Z" transform="translate(-2489.618 -879.21)"/><g transform="translate(5.542)"><path class="c" d="M2529.309,794.894a8.331,8.331,0,0,1-5.379-3.2,8.528,8.528,0,0,1-1.495-2.939c-.084-.267-.134-.541-.194-.814-.037-.275-.091-.551-.105-.828a9,9,0,0,1,.009-1.664,9.227,9.227,0,0,1,.9-3.181,8.486,8.486,0,0,1,.873-1.415,8.843,8.843,0,0,1,1.1-1.2c.374-.348.733-.648,1.041-.949a5.3,5.3,0,0,0,.427-.447,3.008,3.008,0,0,0,.317-.45,2.16,2.16,0,0,0,.3-1.019,1.31,1.31,0,0,0-.3-.935l.534-.779a2.037,2.037,0,0,1,.73.643,2.675,2.675,0,0,1,.386.881,3.489,3.489,0,0,1-.084,1.843,8.321,8.321,0,0,1-1.826,2.7,8.2,8.2,0,0,0-.775,1.028c-.119.172-.214.36-.321.539-.09.19-.192.372-.269.568a8.27,8.27,0,0,0-.642,2.423,7.679,7.679,0,0,0,1.077,4.822,9.087,9.087,0,0,0,3.939,3.467Z" transform="translate(-2522.101 -775.074)"/><path class="c" d="M2568.071,804.013a10.213,10.213,0,0,0,2.07-2.466,8.224,8.224,0,0,0,1.056-2.813,8.684,8.684,0,0,0-.046-3,11.181,11.181,0,0,0-1.066-3.036l.688-.647a6.352,6.352,0,0,1,2.417,3.077,7.428,7.428,0,0,1,.38,4.026,7.6,7.6,0,0,1-1.767,3.631,6.575,6.575,0,0,1-3.309,2.07Z" transform="translate(-2560.228 -789.156)"/></g></g><g transform="translate(22.643 4.966)"><g transform="translate(0 25.636)"><g class="d"><path class="e" d="M1290.8,176.419c-6.1,17.644-13.38,35.067-38.708,41.795l-109.475-1.163c-24.669-11.651-38.15-34.657-40.392-59.478a84.615,84.615,0,0,1,1.464-24.861q.674-3.261,1.609-6.481c5.656-19.5,17.626-37.882,35.433-48.251,11.441-6.663,26.107-4.464,38.259-1.043,10.956,3.083,21.658,7.4,32.969,8.7,9.01,1.033,18.176.116,27.216.471a66.218,66.218,0,0,1,9.637,1.014c13.655,2.565,25.759,10.938,34.067,22.133a60.85,60.85,0,0,1,7.144,12.42C1297.337,138.852,1296.9,158.775,1290.8,176.419Z" transform="translate(-1101.889 -73.664)"/></g></g></g><path class="f" d="M2035.016,968.535c8.7,2.231,20.659,4.232,16.848,11.672l-21.679-.021Z" transform="translate(-1849.155 -810.886)"/><g transform="translate(61.914 106.391)"><rect class="g" width="46.902" height="68.761" rx="23.451"/><path class="h" d="M1375.007,704.089a2.852,2.852,0,0,0-1.674,1.66,10.738,10.738,0,0,0-.771,2.386,32.125,32.125,0,0,0-.617,5.035,91.364,91.364,0,0,0,.105,10.194c.193,3.4.5,6.791.915,10.171q.3,2.537.687,5.062c.25,1.684.53,3.365.873,5.033l-.244.055c-.408-1.66-.757-3.334-1.07-5.015s-.564-3.372-.8-5.064q-.686-5.081-.994-10.206a83.251,83.251,0,0,1-.011-10.264,31.63,31.63,0,0,1,.736-5.1,11.109,11.109,0,0,1,.888-2.442,4.58,4.58,0,0,1,.765-1.077,2.367,2.367,0,0,1,1.158-.671Z" transform="translate(-1364.564 -697.749)"/></g><path class="i" d="M1440.29,731.832a285.345,285.345,0,0,0,9.681,56.518H1472.8Z" transform="translate(-1359.909 -614.569)"/><g class="v" transform="matrix(1, 0, 0, 1, 0, -23.05)"><path class="j" d="M1474.99,305.68a10.527,10.527,0,0,1-3.12-15.873q.6-.725,1.346-1.466c6.4-6.375,2.413-12.753,1.518-27.42s15.43-18.654,15.462-18.662c.77-.188,2.26-2.385,2.889-2.931,7.368-6.39,17.936-5.918,26.012-1.055a26.48,26.48,0,0,1,9.789,9.965c3.3,6.483,3.9,15.025,9.45,20.074,7.918,7.2,16.7,13.306,16.346,24.914-.126,4.123-1.158,8.48-3.671,11.785-2.19,2.88-5.526,4.813-8.537,6.676a73.361,73.361,0,0,1-15.524,7.505c-5.29,1.742-10.639,3.307-16,4.8q-.761.212-1.522.42Z" transform="translate(-1384.14 -179.1)"/></g><path class="k" d="M1720.441,608.467c19.172-6.583,29.585,14.876,43.9,56.746l13.777,3.717-1.6,14.911-5.027,1.048-41.044.173Z" transform="translate(-1592.26 -511.281)"/><rect class="c" width="480" height="10.048" transform="translate(0 168.839)"/><path class="k" d="M1546.251,595.879l42.874,10.73,18.013,53.976-60.176,1.834-3.981-39.909Z" transform="translate(-1445.079 -501.813)"/><path class="l" d="M1535.206,731.832c10.534,10.6,8.2,26.144,17.2,27.686,5.957,1.021,22.888,3.44,30.965,6.805,1.633.681,6.143,4.034,5.444,7.01-.45,1.918-6.46.381-6.46.381l-44.989-4.515-9.528-22.044Z" transform="translate(-1432.522 -614.569)"/><path class="g" d="M1787.9,951.552c.306-.482,6.756-1.761,7.486-1.662a5.556,5.556,0,0,1,4.287,3.645l-9.545,5.034Z" transform="translate(-1648.209 -795.418)"/><path class="g" d="M1828.685,731.553l1.107,2.523c.364.844.7,1.7,1.058,2.545.68,1.707,1.336,3.424,1.951,5.156,1.247,3.458,2.351,6.965,3.386,10.491q1.526,5.3,2.741,10.678c.39,1.8.767,3.594,1.1,5.4s.609,3.626.848,5.448l-.237.034q-.45-2.712-1.031-5.4c-.368-1.795-.779-3.581-1.2-5.364q-1.274-5.348-2.8-10.63c-1-3.526-2.115-7.018-3.291-10.489-.581-1.738-1.211-3.459-1.849-5.177-.326-.856-.639-1.718-.975-2.571l-1.025-2.552Z" transform="translate(-1681.853 -614.338)"/><g transform="translate(136.276 155.649)"><path class="f" d="M1812.713,966.408s-1.8,2.133-7.5.055c-2.683.311-7.674.073-17.164-1.476,0,0,3.446,2.41,11.24,2.824,0,0-.333,2.295-4.44,2.193-4.944-.124-5.515-.422-10.02-.235-.921.038-2.926,0-5.1-.073-3.788-.124-8.092-.324-8.092-.324l-3.754-6.71,7.49-3.587a19.542,19.542,0,0,1,4.564-1.369c4.837-.687,7.891-1.233,11.359-.636C1795.152,957.731,1806.921,961.634,1812.713,966.408Z" transform="translate(-1767.887 -956.814)"/></g><path class="m" d="M1464.517,606.975c-9.745-2-33.494-3.658-40.13,8.637-5.463,10.122,8.231,44.019,14.164,55.94,2.442,4.907,9.532,7.335,12.288,7.353l39.155-.225c-2.634-.611-6.01-14.746,2.855-14.346l-32.428-4.518a4.442,4.442,0,0,1-3.1-1.946,9.3,9.3,0,0,1-1.292-2.623l-9.2-33.715Z" transform="translate(-1345.673 -509.862)"/><path class="n" d="M1987.8,1017.683l-38.2-.024v-3.6h38.424Z" transform="translate(-1782.318 -848.639)"/><g transform="translate(191.675 119.878)"><path class="g" d="M2138.662,796.324l-46.083-.014,16.809-49.152,46.083.014Z" transform="translate(-2092.579 -747.158)"/><path class="n" d="M2258.274,871.482c-1.412,2.256-4.052,3.182-6.065,2.192a3.139,3.139,0,0,1-.35-.192c-2.052-1.28-2.5-4.257-1.007-6.641s4.364-3.284,6.416-2a3.889,3.889,0,0,1,1.408,1.557A5.263,5.263,0,0,1,2258.274,871.482Z" transform="translate(-2223.116 -844.275)"/><path class="o" d="M2263.075,876.8c-1.412,2.256-4.883,3.9-7.316,1.213,5.277.479,7.054-2.978,6.954-7.346A4.973,4.973,0,0,1,2263.075,876.8Z" transform="translate(-2227.917 -849.596)"/></g><g transform="translate(157.165 155.782)"><path class="p" d="M1905.026,957.591a38.254,38.254,0,0,1,5.734,1.419c1.878.589,3.724,1.277,5.54,2.039a51.192,51.192,0,0,1,5.329,2.552,27.589,27.589,0,0,1,4.869,3.354l-.159.193a29,29,0,0,0-2.426-1.627c-.829-.511-1.683-.982-2.549-1.429-1.729-.9-3.5-1.727-5.309-2.46-1.787-.788-3.625-1.457-5.465-2.111q-1.382-.487-2.784-.915c-.932-.292-1.872-.559-2.822-.77Z" transform="translate(-1902.48 -957.591)"/><path class="p" d="M1900.354,1010.9l2.061.59c.687.184,1.377.343,2.071.484s1.393.252,2.095.352,1.409.163,2.117.233l.235.023.019.2a1.937,1.937,0,0,1-.077.761,1.406,1.406,0,0,1-.413.65,1.566,1.566,0,0,1-.67.326,3.177,3.177,0,0,1-.352.05l-.346-.009v-.25l.309-.046c.1-.03.2-.045.29-.082a1.165,1.165,0,0,0,.465-.3.992.992,0,0,0,.242-.468,1.455,1.455,0,0,0,.014-.539l.254.227a20.857,20.857,0,0,1-4.313-.527,18.672,18.672,0,0,1-2.087-.615,21.292,21.292,0,0,1-2-.825Z" transform="translate(-1898.569 -1001.802)"/><path class="p" d="M1890.354,981.786c1.657.212,3.324.375,4.991.545s3.335.345,5,.609,3.307.566,4.957.866,3.3.6,4.94.937l.389.079-.167.361a4.772,4.772,0,0,1-.424.886,2.493,2.493,0,0,1-.354.413,4.415,4.415,0,0,1-.432.305,5.758,5.758,0,0,1-1.883.6,19.45,19.45,0,0,1-3.8.157c-.629-.023-1.258-.05-1.883-.106s-1.252-.092-1.874-.171c-1.248-.13-2.488-.306-3.727-.487l.031-.248c1.246.1,2.487.241,3.733.315q.933.073,1.866.114c.622.04,1.244.051,1.865.058a21.985,21.985,0,0,0,3.687-.216,5.22,5.22,0,0,0,1.672-.536c.121-.069.22-.159.332-.237a1.891,1.891,0,0,0,.251-.3,4.5,4.5,0,0,0,.371-.808l.223.44c-3.29-.62-6.576-1.282-9.871-1.853-1.638-.3-3.3-.5-4.961-.722s-3.323-.442-4.977-.747Z" transform="translate(-1890.315 -977.658)"/></g><line class="q" x2="480" transform="translate(0 168.839)"/><path class="g" d="M1636.888,671.371a13.943,13.943,0,0,0,4.64,2.054,12.732,12.732,0,0,0,5.023.193,10.434,10.434,0,0,0,4.607-1.91,10.594,10.594,0,0,0,3.193-3.882l.23.1q-.266.6-.548,1.2c-.214.383-.465.746-.7,1.121-.26.356-.569.675-.854,1.015-.306.319-.655.6-.982.9a10.555,10.555,0,0,1-4.843,2.091,12.7,12.7,0,0,1-9.916-2.673Z" transform="translate(-1522.838 -561.484)"/><path class="g" d="M1570.559,731.642l2.138,7.267,2.1,7.276,2.082,7.283,1.035,3.643.517,1.821a13.69,13.69,0,0,0,.564,1.758,5.236,5.236,0,0,0,2.492,2.475,14.559,14.559,0,0,0,3.507,1.169c1.223.263,2.46.441,3.715.6l3.752.508,7.5,1.038,7.5,1.079-.031.237-7.522-.892-7.517-.932-3.757-.478c-1.249-.155-2.514-.33-3.762-.592a15.143,15.143,0,0,1-3.661-1.206,5.753,5.753,0,0,1-2.769-2.76,3,3,0,0,1-.182-.465c-.052-.157-.112-.319-.149-.468l-.255-.912-.51-1.824-1.019-3.647-2.027-7.3-2-7.3-1.97-7.314Z" transform="translate(-1467.76 -614.412)"/><g transform="translate(86.453 38.565)"><path class="f" d="M1614.582,504.655l1.92,16.529c.572,4.92-4.614,9.043-9.87,7.679-3.005-.78-6.136-2.86-9.377-5.986a3.809,3.809,0,0,1-1.162-2.36l-2.047-19.921Z" transform="translate(-1573.884 -461.352)"/><path class="f" d="M1618.263,344.7a44.484,44.484,0,0,1-1.56,8.942c-1.421,4.728-3.9,8.542-8.146,9.249-12.5,2.078-21.564-10.351-21.564-10.351l-1.454-16.913,7.546-13.054,16.9-.49,8.24,9.747A80.9,80.9,0,0,1,1618.263,344.7Z" transform="translate(-1566.829 -313.296)"/><path class="j" d="M1563.145,321.25c6.712-.5,8.257-6.173,8.716-13.525,0,0,18.179-4.5,24.633,8.42l4.894.53L1586.567,297l-23.034,2.748-4.506,14.953Z" transform="translate(-1544.839 -292.494)"/><path class="f" d="M1566.312,420.388a3.663,3.663,0,0,0-3.136-1.172c-4.459.54-5.233,6.444-4.214,8.956,1.526,3.76,5.657,4.905,5.657,4.905l3.549-3.754C1568.452,425.414,1568.008,422.256,1566.312,420.388Z" transform="translate(-1544.456 -393.835)"/><path class="r" d="M1497.807,527.165c2.45,6.967,9.988,26.642-2.323,26.147-5.934-.238-11.148-11.748-19.607-9.575a22.253,22.253,0,0,1,3.163-1.222Z" transform="translate(-1475.877 -483.387)"/><path class="j" d="M1511.416,500.584c2.375,4.511,9.019,26.828-2.3,25.539-5.454-.621-6.794-7.192-14.7-5.653Z" transform="translate(-1491.252 -461.342)"/><g transform="translate(16.339 22.057)"><path class="s" d="M1575.853,434.164a2.467,2.467,0,0,0-.407-1.41,2.512,2.512,0,0,0-1.048-.922,1.7,1.7,0,0,0-1.292-.069,3.306,3.306,0,0,0-1.192.884l-.274-.163a2.59,2.59,0,0,1,1.174-1.376,1.554,1.554,0,0,1,.464-.173,1.6,1.6,0,0,1,.5-.06l.252.008.244.052a1.742,1.742,0,0,1,.466.16,2.764,2.764,0,0,1,1.321,1.329,2.313,2.313,0,0,1,.106,1.809Z" transform="translate(-1571.64 -425.58)"/><path class="s" d="M1736.522,425.04c.024,1.149.417,2.059.879,2.031s.817-.982.793-2.131-.417-2.059-.879-2.031S1736.5,423.891,1736.522,425.04Z" transform="translate(-1708.321 -419.858)"/><path class="s" d="M1663.868,427.585c.025,1.149.437,2.059.921,2.031s.856-.982.831-2.131-.437-2.059-.921-2.031S1663.843,426.436,1663.868,427.585Z" transform="translate(-1648.131 -421.087)"/><path class="s" d="M1691.486,496.743a6.1,6.1,0,0,1-2.043,1.74,4,4,0,0,1-2.806.2,6.953,6.953,0,0,1-2.38-1.3,11.094,11.094,0,0,1-1.848-1.865l.258-.266c.708.489,1.372,1.012,2.075,1.453a8.524,8.524,0,0,0,2.156,1.07,3.615,3.615,0,0,0,2.23-.039,9,9,0,0,0,2.1-1.259Z" transform="translate(-1663.51 -478.978)"/><path class="s" d="M1725.859,401.517a5.829,5.829,0,0,0-.9-.644,1.513,1.513,0,0,0-.883-.187,2.752,2.752,0,0,0-.914.313c-.316.16-.625.374-.98.556l-.1-.118a3.234,3.234,0,0,1,.77-1.031,2.082,2.082,0,0,1,1.167-.535,1.615,1.615,0,0,1,1.236.438,2.583,2.583,0,0,1,.716,1.107Z" transform="translate(-1694.988 -399.863)"/><path class="s" d="M1648.362,404.63a3.554,3.554,0,0,0-1.011-.609,2.228,2.228,0,0,0-1.038-.121,3.465,3.465,0,0,0-1.043.321c-.349.166-.691.38-1.072.589l-.1-.116a3.292,3.292,0,0,1,.88-1.078,2.463,2.463,0,0,1,1.265-.528,2.017,2.017,0,0,1,1.341.332,2.285,2.285,0,0,1,.884,1.111Z" transform="translate(-1628.366 -402.528)"/><path class="t" d="M1617.961,461.67a4.546,4.546,0,1,0,4.384-4.7A4.546,4.546,0,0,0,1617.961,461.67Z" transform="translate(-1610.055 -447.222)"/><path class="t" d="M1753,454.545a44.492,44.492,0,0,1-1.56,8.942,4.549,4.549,0,0,1,.939-8.959A5.221,5.221,0,0,1,1753,454.545Z" transform="translate(-1717.906 -445.199)"/><path class="s" d="M1704.24,425.747a13.848,13.848,0,0,0,.087,3.217c.14,1.064.359,2.1.572,3.19.054.272.1.55.145.841a5.781,5.781,0,0,1,.074.965,1.718,1.718,0,0,1-.128.65,1.09,1.09,0,0,1-.342.418,2.026,2.026,0,0,1-.6.3,5.334,5.334,0,0,1-2.306.135l0-.406c.367-.084.737-.15,1.1-.258a6.366,6.366,0,0,0,1.055-.353,2.148,2.148,0,0,0,.449-.273.61.61,0,0,0,.092-.1.966.966,0,0,0,.01-.154,9.67,9.67,0,0,0-.207-1.485,29.072,29.072,0,0,1-.493-3.339,10.789,10.789,0,0,1,.237-3.456Z" transform="translate(-1678.298 -421.242)"/></g><g transform="translate(3.251)"><path class="s" d="M1507.871,507.146a4.271,4.271,0,0,0-.339,2.029,6.831,6.831,0,0,0,.488,2.031c.55,1.3,1.282,2.563,1.926,3.871a15.245,15.245,0,0,1,1.495,4.177,9.357,9.357,0,0,1,.109,2.266,9.491,9.491,0,0,1-.187,1.137,5.42,5.42,0,0,1-.42,1.1,4.4,4.4,0,0,1-1.578,1.752,3.673,3.673,0,0,1-2.327.545,8.6,8.6,0,0,1-2.177-.67c-.677-.282-1.339-.578-2-.873a18.63,18.63,0,0,0-4.028-1.4,4.714,4.714,0,0,0-2.044,0,2.781,2.781,0,0,0-.9.438,3.088,3.088,0,0,0-.686.752l-.276-.161a3.429,3.429,0,0,1,.711-.9,3.213,3.213,0,0,1,1.016-.566,5.168,5.168,0,0,1,2.266-.129,19.179,19.179,0,0,1,4.216,1.307l2,.832a8.02,8.02,0,0,0,1.97.594,2.877,2.877,0,0,0,1.822-.449,3.808,3.808,0,0,0,1.288-1.449,4.608,4.608,0,0,0,.366-.926,8.9,8.9,0,0,0,.174-1.005,8.6,8.6,0,0,0-.079-2.067,16.145,16.145,0,0,0-1.362-4.007c-.594-1.314-1.29-2.579-1.822-3.975a7.32,7.32,0,0,1-.415-2.205,4.425,4.425,0,0,1,.5-2.191Z" transform="translate(-1494.931 -466.665)"/><path class="s" d="M1572.116,273.07a24.017,24.017,0,0,1,3.8-1.287,37.927,37.927,0,0,1,3.925-.808,33.628,33.628,0,0,1,3.995-.377c.67-.017,1.341-.015,2.013.019a14.312,14.312,0,0,1,2,.258l-.045.316c-.657-.02-1.309-.043-1.965,0-.655.015-1.31.059-1.964.123q-1.962.178-3.916.469c-1.3.191-2.6.427-3.891.676-.647.125-1.289.269-1.929.422-.645.139-1.276.32-1.913.492Z" transform="translate(-1558.947 -270.587)"/><path class="s" d="M1633.824,353.391a7.288,7.288,0,0,1,1.7-.6c.58-.135,1.165-.252,1.753-.33a26.212,26.212,0,0,1,3.551-.224,27.032,27.032,0,0,1,7.051.954,18.917,18.917,0,0,1,6.421,3.113,13.79,13.79,0,0,1,4.374,5.585l-.289.137a15,15,0,0,0-4.511-5.15,18.424,18.424,0,0,0-2.969-1.732,22.715,22.715,0,0,0-3.244-1.175,28.665,28.665,0,0,0-6.845-1.044,27.162,27.162,0,0,0-3.476.084,11.988,11.988,0,0,0-3.37.669Z" transform="translate(-1610.126 -338.302)"/></g></g><g transform="translate(20.641 111.243)"><g transform="translate(11.186 6.039)"><path class="s" d="M1156.95,731.968l4.386,1.421a.964.964,0,0,1,.116,1.788l-4.79,2.271.008.065,6.7,1.335a.465.465,0,1,1-.181.911l-6.7-1.335a.964.964,0,0,1-.225-1.816l4.789-2.271,0-.064-4.386-1.422a.465.465,0,0,1,.287-.884Z" transform="translate(-1155.713 -731.945)"/></g><path class="s" d="M1091.253,696.569l3.895,1.262a.856.856,0,0,1,.1,1.588L1091,701.436l.007.058,5.95,1.186a.413.413,0,1,1-.161.809l-5.95-1.186a.856.856,0,0,1-.2-1.613l4.254-2.017,0-.057L1091,697.354a.413.413,0,0,1,.254-.785Z" transform="translate(-1090.155 -696.549)"/><g transform="translate(23.735 15.303)"><path class="s" d="M1230.137,786.253l3.088,1a.679.679,0,0,1,.082,1.259l-3.373,1.6.006.046,4.718.94a.327.327,0,1,1-.128.642l-4.718-.94a.679.679,0,0,1-.158-1.279l3.372-1.6,0-.045-3.088-1a.327.327,0,0,1,.2-.622Z" transform="translate(-1229.266 -786.237)"/></g></g><g transform="translate(11.928 135.047)"><g transform="translate(0 12.039)"><path class="b" d="M1055.862,906.691c-6.086,1.442-12.837,3.44-15.724,9.576-2.727,5.8.111,11.426,5.59,14.167,3.707,1.855,17.834,4.98,11.968,11.836-3.79,4.429-10.371,3.059-14.7.444-2.255-1.363-4.31,2.167-2.061,3.526,4.921,2.974,10.586,4.064,15.939,1.606,5.81-2.668,8.1-9.508,3.664-14.513-2.273-2.566-5.483-3.772-8.638-4.857-2.984-1.027-6.891-2.174-8.34-5.32-1.364-2.961.426-6.345,2.7-8.294,2.939-2.521,7.027-3.365,10.69-4.233,2.556-.605,1.474-4.544-1.086-3.937Z" transform="translate(-1039.088 -906.628)"/></g><g transform="translate(70.964 10.046)"><path class="b" d="M1456.759,904.468c6.919.4,7.416-8.608,7.416-8.608a9.621,9.621,0,0,0-9.169.577Z" transform="translate(-1455.006 -894.945)"/><path class="s" d="M1465.249,915.072c2.756-.044,4.111-3.508,4.111-3.508a4.939,4.939,0,0,0-4.589.03Z" transform="translate(-1463.105 -908.278)"/></g><g transform="translate(51.416)"><path class="b" d="M1342.192,847.294c-4.8-5,1.735-11.229,1.735-11.229a9.621,9.621,0,0,1,5.512,7.35Z" transform="translate(-1340.432 -836.065)"/><path class="s" d="M1357.128,864.553c-1.674-2.027,0-5.155,0-5.155a4.712,4.712,0,0,1,2.82,3.349Z" transform="translate(-1353.662 -855.417)"/></g><path class="b" d="M1146.2,881.609a1.722,1.722,0,0,1-1.335,1.007c-4.679.721-5.823-.572-5.823-.572s-3.724,2.073-12.477-.392a2.017,2.017,0,0,1-1.16.9c-1.339.439-6.539-.013-9.926-.367a73.178,73.178,0,0,0-8.045.264c-5.464,0-11.67-1.459-14.072-6.94-3.041-6.936.158-15.249,5.315-20.214,5.5-5.306,12.844-5.784,19.519-2.308,16.192,8.437,17.416,5.686,21.571,2.188l2.8,21.264a5.748,5.748,0,0,1,2.3,1.369,7.137,7.137,0,0,1,.921,1.169A2.769,2.769,0,0,1,1146.2,881.609Z" transform="translate(-1083.12 -848.253)"/><path class="u" d="M1322.2,901.877c-6.492,3.815-6.706,15.9,5.828,17.081l1.436-5.481Z" transform="translate(-1270.266 -890.648)"/><path class="b" d="M1356.122,884.063c-1.318,4.632-3.494,7.286-5.724,8.761a10.323,10.323,0,0,1-5.72,1.749,13.4,13.4,0,0,1-4.044-.631c-4.965-1.561-9.021-5.912-9.021-11.628,0-7.217,5.242-12.75,11.841-12.75C1351.007,869.564,1358.468,875.8,1356.122,884.063Z" transform="translate(-1281.702 -863.848)"/><path class="u" d="M1396.76,999.447a10.323,10.323,0,0,1-5.72,1.749c-.1,0-.2,0-.3,0a7.148,7.148,0,0,0-.921-1.169,5.749,5.749,0,0,0-2.3-1.369,5.527,5.527,0,0,1,3.2.128s3.732-1.855,6.04.657Z" transform="translate(-1328.064 -970.472)"/><path class="b" d="M1398.4,1007.228a2.166,2.166,0,0,0,.375,2.962,1.125,1.125,0,0,0,.659.27h6.508c.311,0,.477-.333.561-.766a3.674,3.674,0,0,0-1.309-3.478C1403.091,1004.452,1400.294,1004.494,1398.4,1007.228Z" transform="translate(-1336.745 -976.186)"/><g transform="translate(49.909 27.521)"><path class="s" d="M1331.6,997.388a29.444,29.444,0,0,1,3.947.115,25.954,25.954,0,0,1,3.909.651,14.19,14.19,0,0,1,1.9.618,9.061,9.061,0,0,1,1.79.936,4.662,4.662,0,0,1,1.409,1.494,3.113,3.113,0,0,1,.332,2.011l-.238-.026a2.945,2.945,0,0,0-.463-1.768,4.191,4.191,0,0,0-1.339-1.267,12.392,12.392,0,0,0-3.544-1.41,31.488,31.488,0,0,0-3.817-.725c-1.288-.174-2.588-.3-3.888-.389Z" transform="translate(-1331.6 -997.364)"/></g><g transform="translate(28.142 14.697)"><path class="s" d="M1204.075,922.2a8.225,8.225,0,0,1,3.682,1.491,5.348,5.348,0,0,1,1.346,1.523,6.3,6.3,0,0,1,.725,1.9,8.984,8.984,0,0,1,.154,2.017,13.843,13.843,0,0,1-.25,1.992,20.129,20.129,0,0,1-1.207,3.795c-.257.612-.546,1.208-.862,1.794l-.121.219-.063.111,0,.007c.028.1-.273-.807-.141-.424l.014.006.028.011.056.023.451.177c.3.116.607.221.913.324a23.854,23.854,0,0,0,3.772.894,37.548,37.548,0,0,1,3.892.647,10.21,10.21,0,0,1,1.892.644,3.164,3.164,0,0,1,.862.564,1.037,1.037,0,0,1,.295.472.755.755,0,0,1-.073.569l-.211-.114a.581.581,0,0,0-.217-.712,2.881,2.881,0,0,0-.8-.468,10.04,10.04,0,0,0-1.847-.538,37.2,37.2,0,0,0-3.872-.534,22.335,22.335,0,0,1-3.876-.869c-.315-.1-.63-.208-.941-.324l-.465-.177-.058-.023-.029-.011-.014-.006c.128.381-.184-.522-.149-.432l0-.006.057-.1.115-.211c.3-.569.575-1.157.834-1.749a19.522,19.522,0,0,0,1.2-3.671,13.292,13.292,0,0,0,.255-1.9,9.264,9.264,0,0,0-.1-1.894,5.281,5.281,0,0,0-1.825-3.2,8.186,8.186,0,0,0-3.467-1.579Z" transform="translate(-1204.029 -922.204)"/></g><path class="s" d="M1420.252,932.488a3.591,3.591,0,0,0,1.9,1.847,3.172,3.172,0,0,0,1.312.111c.229-.021.458-.084.694-.118.23-.067.462-.135.706-.19l.117.238c-.214.141-.438.268-.667.395a5.746,5.746,0,0,1-.747.26,3.054,3.054,0,0,1-1.635-.039,2.676,2.676,0,0,1-1.334-.971,3.157,3.157,0,0,1-.6-1.465Z" transform="translate(-1355.005 -916.036)"/><path class="s" d="M1376.717,913.7a3.591,3.591,0,0,0,1.749,1.989,3.173,3.173,0,0,0,1.3.213c.23,0,.463-.048.7-.064.234-.049.471-.1.719-.134l.1.246c-.224.124-.458.233-.7.342a5.727,5.727,0,0,1-.765.2,3.052,3.052,0,0,1-1.627-.165,2.677,2.677,0,0,1-1.255-1.071,3.161,3.161,0,0,1-.486-1.507Z" transform="translate(-1318.894 -900.454)"/></g><path class="n" d="M64.37-32.925C77.008-24.341,85-6.816,87.738,13.452,90.48,33.6,87.857,56.611,75.1,70.918,62.462,85.224,39.452,90.947,19.3,88.324-.964,85.582-18.49,74.494-38.281,60.068-58.191,45.762-80.247,28.236-85.135,5.822c-4.769-22.295,7.63-49.6,27.421-58.181s47.093,1.431,69.388,6.319C34.087-41.152,51.613-41.509,64.37-32.925Z" transform="translate(352.472 69.556) rotate(-30)"/></g></svg>